<svg width="152" height="60" viewBox="0 0 152 60" fill="none" xmlns="http://www.w3.org/2000/svg">
<path d="M42.998 54H47.7977V53.2691H43.802V45.7162H42.998V54ZM49.3864 54H50.1904V45.7162H49.3864V54ZM58.6889 45.7162V51.5271C58.6889 51.7951 58.6889 52.0874 58.7132 52.392C58.5061 52.1483 58.2991 51.9169 58.1041 51.6976L52.9633 45.6553H52.6222V54H53.4263V48.1039C53.4263 47.8237 53.4141 47.5679 53.3897 47.3121C53.5968 47.5435 53.8039 47.775 53.9866 47.9943L59.1396 54.0609H59.4929V45.7162H58.6889ZM63.5333 49.8338L67.4559 45.7528V45.7162H66.4692L62.7293 49.6267V45.7162H61.9253V54H62.7293V50.0896L66.6763 54H67.6874V53.9635L63.5333 49.8338ZM70.6355 49.8338L74.5581 45.7528V45.7162H73.5714L69.8315 49.6267V45.7162H69.0275V54H69.8315V50.0896L73.7785 54H74.7896V53.9635L70.6355 49.8338ZM76.9337 53.2691V50.1139H80.5761V49.3952H76.9337V46.4472H81.0756V45.7162H76.1297V54H81.1852V53.2691H76.9337ZM83.7385 53.2691V50.1139H87.3809V49.3952H83.7385V46.4472H87.8803V45.7162H82.9345V54H87.99V53.2691H83.7385ZM89.7392 54H90.5433V50.6743H92.7482C94.5755 50.6743 95.4039 49.3952 95.4039 48.2379C95.4039 47.0684 94.5268 45.7162 92.7969 45.7162H89.7392V54ZM90.5433 49.9434V46.4472H92.7847C93.8811 46.4472 94.5999 47.2755 94.5999 48.2257C94.5999 49.0907 94.0029 49.9434 92.736 49.9434H90.5433ZM97.8239 53.2691V50.1139H101.466V49.3952H97.8239V46.4472H101.966V45.7162H97.0199V54H102.075V53.2691H97.8239ZM107.394 50.5281C108.746 50.321 109.599 49.3952 109.599 48.1526C109.599 46.7761 108.429 45.7162 106.955 45.7162H103.825V54H104.629V50.5647H106.505L108.831 54H109.757V53.9635L107.394 50.5281ZM104.629 49.8338V46.4472H106.955C108.04 46.4472 108.795 47.2025 108.795 48.1648C108.795 49.1516 108.076 49.8338 106.919 49.8338H104.629Z" fill="white"/>
<line x1="75.8391" y1="9.13037" x2="75.8391" y2="35.2173" stroke="white"/>
<line x1="67.4087" y1="26.8911" x2="75.3391" y2="26.8911" stroke="white"/>
<line x1="76.6608" y1="17.7607" x2="84.5913" y2="17.7607" stroke="white"/>
<path d="M80.2511 4.56522C80.2511 6.87474 78.3525 8.75543 76 8.75543C73.6475 8.75543 71.7489 6.87474 71.7489 4.56522C71.7489 2.25569 73.6475 0.375 76 0.375C78.3525 0.375 80.2511 2.25569 80.2511 4.56522Z" stroke="white" stroke-width="0.75"/>
<path d="M93.4685 17.6087C93.4685 19.9182 91.5699 21.7989 89.2174 21.7989C86.8649 21.7989 84.9663 19.9182 84.9663 17.6087C84.9663 15.2991 86.8649 13.4185 89.2174 13.4185C91.5699 13.4185 93.4685 15.2991 93.4685 17.6087Z" stroke="white" stroke-width="0.75"/>
<path d="M67.0337 26.739C67.0337 29.0486 65.1351 30.9293 62.7826 30.9293C60.4301 30.9293 58.5315 29.0486 58.5315 26.739C58.5315 24.4295 60.4301 22.5488 62.7826 22.5488C65.1351 22.5488 67.0337 24.4295 67.0337 26.739Z" stroke="white" stroke-width="0.75"/>
</svg>
